<svg xmlns="http://www.w3.org/2000/svg" version="1.1" xmlns:xlink="http://www.w3.org/1999/xlink" xmlns:svgjs="http://svgjs.dev/svgjs" width="1000" height="1000" viewBox="0 0 1000 1000"><rect width="1000" height="1000" fill="#0f172a"></rect><g transform="matrix(0.7,0,0,0.7,150,106.25)"><svg viewBox="0 0 320 360" data-background-color="#0f172a" preserveAspectRatio="xMidYMid meet" height="1125" width="1000" xmlns="http://www.w3.org/2000/svg" xmlns:xlink="http://www.w3.org/1999/xlink"><defs></defs><g id="tight-bounds" transform="matrix(1,0,0,1,0,0)"><svg viewBox="0 0 320 360" height="360" width="320"><g><svg></svg></g><g><svg viewBox="0 0 320 360" height="360" width="320"><g><path d="M160 340c88.258 0 160-71.742 160-160 0-88.258-71.742-160-160-160-88.258 0-160 71.742-160 160 0 88.258 71.742 160 160 160zM165.161 329.368v-10.323c72.671-2.684 131.2-61.213 133.884-133.884h10.323c-2.684 78.452-65.755 141.523-144.207 144.207zM165.161 30.632c78.452 2.684 141.523 65.755 144.207 144.207h-10.323c-2.684-72.671-61.213-131.2-133.884-133.884zM289.032 180c0 71.123-57.91 129.032-129.032 129.032-71.123 0-129.032-57.91-129.032-129.032 0-71.123 57.91-129.032 129.032-129.032 71.123 0 129.032 57.91 129.032 129.032zM154.839 30.632v10.323c-72.671 2.684-131.2 61.213-133.884 133.884h-10.323c2.684-78.452 65.755-141.523 144.207-144.207zM20.955 185.161c2.684 72.671 61.213 131.2 133.884 133.884v10.323c-78.452-2.684-141.523-65.755-144.207-144.207z" fill="#fbbf24" data-fill-palette-color="tertiary"></path></g><g transform="matrix(1,0,0,1,82.6,90)"><svg viewBox="0 0 154.8 180" height="180" width="154.8"><g><svg viewBox="0 0 154.8 180" height="180" width="154.8"><g><svg viewBox="0 0 154.8 180" height="180" width="154.8"><g><svg viewBox="0 0 154.8 180" height="180" width="154.8"><g><svg viewBox="0 0 154.8 180" height="180" width="154.8"><g><svg viewBox="0 0 154.8 180" height="180" width="154.8"><g transform="matrix(1,0,0,1,0,0)"><svg width="154.8" viewBox="1.2 -35 30.1 35" height="180" data-palette-color="#fbbf24"><path d="M3.2 0L2.2 0Q1.8 0 1.5-0.3 1.2-0.6 1.2-1L1.2-1Q1.2-1.25 1.3-1.55L1.3-1.55 13.95-34Q14.15-34.5 14.48-34.75 14.8-35 15.4-35L15.4-35 17.1-35Q17.7-35 18.03-34.75 18.35-34.5 18.55-34L18.55-34 31.2-1.55Q31.3-1.25 31.3-1L31.3-1Q31.3-0.6 31-0.3 30.7 0 30.3 0L30.3 0 29.3 0Q28.8 0 28.55-0.28 28.3-0.55 28.2-0.75L28.2-0.75 25.1-8.75 7.4-8.75 4.3-0.75Q4.25-0.55 3.98-0.28 3.7 0 3.2 0L3.2 0ZM16.25-31.45L8.6-11.75 23.9-11.75 16.25-31.45Z" opacity="1" transform="matrix(1,0,0,1,0,0)" fill="#fbbf24" class="undefined-text-0" data-fill-palette-color="primary" id="text-0"></path></svg></g></svg></g></svg></g></svg></g></svg></g></svg></g></svg></g></svg></g></svg><rect width="320" height="360" fill="none" stroke="none" visibility="hidden"></rect></g></svg></g></svg>