<svg xmlns="http://www.w3.org/2000/svg" version="1.1" xmlns:xlink="http://www.w3.org/1999/xlink" xmlns:svgjs="http://svgjs.dev/svgjs" width="1000" height="1000" viewBox="0 0 1000 1000"><rect width="1000" height="1000" fill="#000000"></rect><g transform="matrix(0.7,0,0,0.7,150,106.25)"><svg viewBox="0 0 320 360" data-background-color="#0f172a" preserveAspectRatio="xMidYMid meet" height="1125" width="1000" xmlns="http://www.w3.org/2000/svg" xmlns:xlink="http://www.w3.org/1999/xlink"><defs></defs><g id="tight-bounds" transform="matrix(1,0,0,1,0,0)"><svg viewBox="0 0 320 360" height="360" width="320"><g><svg></svg></g><g><svg viewBox="0 0 320 360" height="360" width="320"><g><path d="M160 42.18c72.417 0 131.943 56.114 137.63 127.014h22.37c-1.137-17.82-5.308-34.882-12.133-51.185-7.962-18.957-19.716-36.398-34.502-50.805-14.787-14.787-31.848-26.161-50.806-34.503-20.095-8.341-40.948-12.891-62.559-12.891-21.611 0-42.464 4.171-62.559 12.512-18.957 7.962-36.398 19.716-50.806 34.503-14.787 14.787-26.161 31.848-34.502 50.805-6.825 16.303-10.995 33.744-12.133 51.185h22.37c5.687-70.521 65.213-126.635 137.63-126.635zM160 318.199c-72.417 0-131.943-56.114-137.63-127.014h-22.37c1.137 17.82 5.308 34.882 12.133 51.185 7.962 18.957 19.716 36.398 34.502 50.805 14.787 14.787 31.848 26.161 50.806 34.503 19.716 8.341 40.569 12.512 62.559 12.512 21.991 0 42.464-4.171 62.559-12.512 18.957-7.962 36.398-19.716 50.806-34.503 14.787-14.787 26.161-31.848 34.502-50.805 6.825-16.303 10.995-33.744 12.133-51.185h-22.37c-5.687 70.9-65.213 127.014-137.63 127.014z" fill="#6ee7b7" data-fill-palette-color="tertiary"></path></g><g transform="matrix(1,0,0,1,80.5449591280654,90)"><svg viewBox="0 0 158.9100817438692 180" height="180" width="158.9100817438692"><g><svg viewBox="0 0 158.9100817438692 180" height="180" width="158.9100817438692"><g><svg viewBox="0 0 158.91008174386923 180.00000000000003" height="180" width="158.9100817438692"><g><svg viewBox="0 0 158.91008174386923 180.00000000000003" height="180.00000000000003" width="158.91008174386923"><g><svg viewBox="0 0 158.91008174386923 180.00000000000003" height="180.00000000000003" width="158.91008174386923"><g><svg viewBox="0 0 158.91008174386923 180.00000000000003" height="180.00000000000003" width="158.91008174386923"><g transform="matrix(1,0,0,1,0,0)"><svg width="158.91008174386923" viewBox="0 -35.84 31.64 35.84" height="180.00000000000003" data-palette-color="#6ee7b7"><path d="M31.64 0L27.34 0 22.9-11.35 8.59-11.35 4.2 0 0 0 14.11-35.84 17.6-35.84 31.64 0ZM10.06-15.09L21.61-15.09 17.46-26.15Q16.65-28.25 15.8-31.3L15.8-31.3Q15.26-28.96 14.26-26.15L14.26-26.15 10.06-15.09Z" opacity="1" transform="matrix(1,0,0,1,0,0)" fill="#ffffff" class="undefined-text-0" data-fill-palette-color="primary" id="text-0"></path></svg></g></svg></g></svg></g></svg></g><g></g></svg></g></svg></g></svg></g></svg></g></svg><rect width="320" height="360" fill="none" stroke="none" visibility="hidden"></rect></g></svg></g></svg>