<?xml version="1.0" standalone="no"?>
<!DOCTYPE svg PUBLIC "-//W3C//DTD SVG 20010904//EN"
 "http://www.w3.org/TR/2001/REC-SVG-20010904/DTD/svg10.dtd">
<svg version="1.0" xmlns="http://www.w3.org/2000/svg"
 width="950.000000pt" height="950.000000pt" viewBox="0 0 950.000000 950.000000"
 preserveAspectRatio="xMidYMid meet">
<metadata>
Created by potrace 1.14, written by Peter Selinger 2001-2017
</metadata>
<g transform="translate(0.000000,950.000000) scale(0.100000,-0.100000)"
fill="#000000" stroke="none">
<path d="M4500 9493 c-684 -47 -1239 -189 -1805 -462 -982 -475 -1752 -1244
-2226 -2226 -248 -514 -388 -1020 -451 -1635 -17 -163 -17 -677 0 -840 63
-615 203 -1121 451 -1635 230 -476 511 -878 876 -1254 395 -406 835 -723 1350
-972 514 -248 1020 -388 1635 -451 163 -17 677 -17 840 0 615 63 1121 203
1635 451 774 374 1418 933 1892 1641 700 1046 954 2314 713 3558 -119 611
-361 1197 -713 1722 -404 604 -940 1106 -1571 1472 -631 366 -1325 576 -2074
627 -139 10 -439 12 -552 4z m506 -1253 c727 -57 1370 -313 1949 -774 132
-106 409 -383 519 -521 311 -389 552 -870 670 -1340 74 -297 100 -519 100
-855 0 -336 -26 -558 -100 -855 -118 -470 -359 -951 -670 -1340 -113 -141
-388 -416 -529 -529 -436 -349 -969 -599 -1505 -706 -256 -51 -398 -64 -690
-64 -407 0 -696 44 -1080 166 -370 117 -794 347 -1115 604 -217 174 -495 470
-661 704 -322 457 -530 979 -608 1525 -213 1497 557 2958 1913 3630 421 209
824 317 1336 358 95 8 352 6 471 -3z"/>
<path d="M4480 8009 c-1055 -92 -2001 -682 -2536 -1581 -273 -460 -414 -917
-459 -1490 l-6 -78 114 0 114 0 11 144 c31 384 128 729 307 1091 380 772 1064
1344 1889 1580 189 54 396 92 582 107 l144 11 0 114 0 113 -32 -1 c-18 -1 -76
-5 -128 -10z"/>
<path d="M4860 7908 l0 -114 143 -12 c397 -34 727 -127 1092 -307 309 -152
565 -335 805 -575 520 -520 833 -1207 886 -1942 l7 -98 114 0 114 0 -6 78
c-19 241 -47 422 -96 616 -306 1211 -1296 2155 -2519 2400 -125 25 -302 49
-457 61 l-83 6 0 -113z"/>
<path d="M4460 7559 c-213 -22 -482 -85 -697 -164 -238 -88 -565 -273 -768
-435 -111 -90 -312 -286 -412 -405 -181 -214 -382 -558 -478 -818 -119 -325
-175 -640 -175 -987 0 -450 91 -839 290 -1245 176 -359 449 -699 765 -956 207
-168 533 -354 778 -444 641 -235 1333 -235 1974 0 239 88 561 271 773 440 110
87 320 295 418 413 184 224 372 547 467 805 235 641 235 1333 0 1974 -95 257
-282 580 -467 805 -103 125 -321 338 -439 430 -212 165 -518 337 -752 423
-225 82 -480 141 -711 164 -126 13 -442 12 -566 0z m460 -855 c28 -11 48 -29
65 -58 42 -72 1447 -3687 1452 -3737 10 -90 -39 -129 -160 -129 -94 0 -137 16
-165 62 -12 19 -96 227 -188 464 -91 236 -170 437 -175 447 -9 16 -67 17 -999
17 -932 0 -990 -1 -999 -17 -5 -10 -86 -218 -181 -463 -95 -245 -180 -453
-189 -464 -27 -32 -77 -46 -158 -46 -121 0 -170 39 -160 129 4 45 1374 3576
1438 3708 43 90 74 103 246 103 99 0 143 -4 173 -16z"/>
<path d="M4320 5214 c-234 -602 -426 -1099 -428 -1105 -2 -5 319 -9 858 -9
539 0 860 4 858 9 -32 92 -854 2201 -858 2201 -3 0 -196 -493 -430 -1096z"/>
<path d="M1485 4563 c31 -394 95 -684 222 -1008 353 -897 1087 -1595 1998
-1903 270 -91 526 -141 858 -167 l77 -6 0 114 0 114 -97 7 c-736 53 -1423 366
-1943 886 -240 240 -423 496 -575 805 -179 362 -273 698 -306 1088 l-13 147
-113 0 -114 0 6 -77z"/>
<path d="M7786 4543 c-53 -736 -366 -1423 -886 -1943 -520 -520 -1207 -833
-1942 -886 l-98 -7 0 -114 0 -114 78 6 c149 12 268 26 382 46 1176 205 2158
1055 2535 2194 87 265 135 513 160 838 l6 77 -114 0 -114 0 -7 -97z"/>
</g>
</svg>
