<?xml version="1.0" standalone="no"?>
<!DOCTYPE svg PUBLIC "-//W3C//DTD SVG 20010904//EN"
 "http://www.w3.org/TR/2001/REC-SVG-20010904/DTD/svg10.dtd">
<svg version="1.0" xmlns="http://www.w3.org/2000/svg"
 width="700.000000pt" height="700.000000pt" viewBox="0 0 700.000000 700.000000"
 preserveAspectRatio="xMidYMid meet">
<metadata>
Created by potrace 1.14, written by Peter Selinger 2001-2017
</metadata>
<g transform="translate(0.000000,700.000000) scale(0.100000,-0.100000)"
fill="#000000" stroke="none">
<path d="M0 3500 l0 -3500 3500 0 3500 0 0 3500 0 3500 -3500 0 -3500 0 0
-3500z m3883 2421 c546 -97 987 -327 1372 -715 391 -394 633 -912 690 -1473
l6 -63 -170 0 c-169 0 -171 0 -175 23 -2 12 -13 81 -24 152 -113 709 -603
1326 -1277 1605 -688 285 -1479 183 -2077 -267 -116 -88 -299 -265 -381 -369
-182 -232 -323 -514 -391 -779 -28 -110 -56 -262 -56 -305 0 -61 3 -60 -181
-60 -141 0 -169 2 -169 14 0 8 7 68 15 133 55 423 216 813 479 1163 90 119
302 338 420 434 326 263 727 442 1137 505 193 30 183 29 434 26 180 -2 256 -7
348 -24z m286 -2402 c293 -748 536 -1369 538 -1380 5 -19 0 -19 -158 -17
l-164 3 -169 433 -170 432 -552 0 -552 0 -40 -102 c-21 -57 -97 -253 -168
-435 l-128 -333 -158 0 c-93 0 -158 4 -158 9 0 6 239 617 531 1358 292 741
535 1358 540 1371 8 21 13 22 142 22 l133 0 533 -1361z m-2775 -211 c3 -13 8
-50 11 -83 35 -327 188 -703 403 -992 84 -111 262 -295 372 -383 832 -663
2023 -610 2779 124 220 214 372 433 484 698 76 178 134 389 152 553 12 117 -9
105 185 105 142 0 170 -2 170 -14 0 -8 -7 -68 -15 -133 -58 -442 -233 -854
-514 -1208 -78 -99 -260 -285 -366 -373 -189 -159 -468 -319 -709 -407 -124
-46 -330 -99 -466 -120 -142 -22 -475 -31 -626 -16 -480 48 -916 229 -1301
540 -118 95 -314 295 -405 411 -210 272 -373 623 -447 963 -18 83 -51 305 -51
343 0 12 28 14 170 14 168 0 170 0 174 -22z"/>
<path d="M3475 4438 c-31 -123 -106 -336 -264 -751 -83 -218 -151 -400 -151
-402 0 -3 198 -5 440 -5 242 0 440 4 440 9 0 4 -77 212 -170 462 -160 424
-260 712 -260 745 0 37 -18 7 -35 -58z"/>
</g>
</svg>
