<?xml version="1.0" standalone="no"?>
<!DOCTYPE svg PUBLIC "-//W3C//DTD SVG 20010904//EN"
 "http://www.w3.org/TR/2001/REC-SVG-20010904/DTD/svg10.dtd">
<svg version="1.0" xmlns="http://www.w3.org/2000/svg"
 width="700.000000pt" height="700.000000pt" viewBox="0 0 700.000000 700.000000"
 preserveAspectRatio="xMidYMid meet">
<metadata>
Created by potrace 1.14, written by Peter Selinger 2001-2017
</metadata>
<g transform="translate(0.000000,700.000000) scale(0.100000,-0.100000)"
fill="#000000" stroke="none">
<path d="M0 3500 l0 -3500 3500 0 3500 0 0 3500 0 3500 -3500 0 -3500 0 0
-3500z m3835 2426 c538 -79 1012 -315 1393 -693 384 -382 627 -876 703 -1433
17 -123 17 -477 0 -600 -76 -557 -315 -1044 -701 -1430 -386 -386 -873 -625
-1430 -701 -123 -17 -477 -17 -600 0 -679 94 -1259 432 -1660 966 -553 738
-644 1726 -235 2546 385 771 1109 1269 1975 1359 115 12 432 4 555 -14z"/>
<path d="M3335 5784 c-16 -2 -73 -9 -125 -15 -487 -54 -961 -288 -1326 -653
-280 -280 -477 -610 -582 -978 -46 -159 -67 -278 -87 -490 l-7 -68 80 0 81 0
6 58 c37 347 89 541 215 797 110 224 221 380 401 562 176 178 349 302 574 413
256 126 450 178 798 215 l57 6 0 80 0 79 -27 -1 c-16 -1 -41 -4 -58 -5z"/>
<path d="M3580 5711 l0 -80 58 -6 c347 -37 540 -89 797 -215 513 -251 905
-698 1083 -1235 58 -174 80 -286 107 -537 l6 -58 80 0 80 0 -6 63 c-15 152
-28 248 -46 332 -94 442 -303 823 -628 1145 -402 399 -874 614 -1458 665 l-73
6 0 -80z"/>
<path d="M3326 5468 c-257 -22 -542 -108 -766 -230 -481 -262 -836 -717 -974
-1248 -82 -316 -81 -690 5 -1002 198 -724 786 -1276 1513 -1423 259 -52 516
-54 771 -5 606 117 1132 521 1400 1075 433 893 145 1953 -679 2507 -281 188
-595 298 -941 327 -136 12 -188 12 -329 -1z m319 -619 c31 -31 1035 -2597
1035 -2645 0 -18 -9 -42 -19 -55 -17 -21 -27 -24 -94 -24 -59 0 -79 4 -96 19
-18 17 -68 136 -225 544 l-48 122 -698 0 -699 0 -41 -107 c-23 -60 -78 -202
-122 -318 -46 -118 -92 -221 -105 -235 -21 -22 -31 -25 -99 -25 -68 0 -78 3
-95 24 -10 13 -19 37 -19 55 0 42 1002 2612 1031 2642 28 30 44 33 167 30 94
-1 104 -3 127 -27z"/>
<path d="M3200 3830 c-162 -419 -296 -765 -298 -770 -2 -6 217 -10 598 -10
381 0 600 4 598 10 -27 79 -594 1530 -598 1530 -3 0 -138 -342 -300 -760z"/>
<path d="M1215 3353 c20 -213 41 -332 87 -491 154 -537 518 -1013 1006 -1315
313 -194 619 -290 1050 -332 l62 -6 0 80 0 80 -57 6 c-348 37 -542 89 -798
215 -224 110 -381 223 -562 401 -178 176 -302 349 -413 574 -126 256 -178 450
-215 798 l-6 57 -81 0 -80 0 7 -67z"/>
<path d="M5625 3363 c-27 -252 -49 -364 -107 -538 -208 -627 -716 -1135 -1343
-1343 -174 -58 -286 -80 -537 -107 l-58 -6 0 -80 0 -79 73 6 c577 46 1061 267
1463 668 315 315 524 693 618 1118 23 104 35 191 51 356 l6 62 -80 0 -80 0 -6
-57z"/>
</g>
</svg>
